<?xml version="1.0" standalone="no"?>
<!DOCTYPE svg PUBLIC "-//W3C//DTD SVG 20010904//EN"
 "http://www.w3.org/TR/2001/REC-SVG-20010904/DTD/svg10.dtd">
<svg version="1.0" xmlns="http://www.w3.org/2000/svg"
 width="200.000000pt" height="200.000000pt" viewBox="0 0 200.000000 200.000000"
 preserveAspectRatio="xMidYMid meet">

<g transform="translate(0.000000,200.000000) scale(0.100000,-0.100000)"
fill="#000000" stroke="none">
<path d="M409 1761 l-39 -39 0 -105 c0 -100 -1 -105 -22 -111 -36 -9 -38 -8
-38 32 0 68 -18 111 -54 129 -30 14 -36 14 -64 -1 -19 -10 -34 -27 -38 -43
-11 -41 45 -960 61 -1018 8 -27 27 -66 43 -85 l29 -34 -18 -31 c-29 -46 -25
-116 7 -154 14 -18 34 -36 44 -41 31 -17 323 -41 570 -47 243 -6 552 7 739 31
89 12 106 17 132 42 16 15 34 46 40 67 9 34 7 46 -13 86 l-23 48 28 44 c15 24
32 59 37 79 5 19 22 252 37 516 30 522 29 524 -24 545 -33 12 -76 -3 -91 -34
-6 -12 -13 -46 -16 -76 -3 -29 -7 -56 -10 -58 -2 -2 -14 -1 -27 2 -23 6 -24 9
-24 116 l0 111 -37 34 -38 34 -576 0 -576 0 -39 -39z m-29 -404 c0 -12 9 -172
20 -355 22 -355 27 -382 75 -404 23 -10 33 -37 19 -51 -11 -11 -61 14 -92 46
-42 44 -47 75 -68 455 -15 271 -15 315 -3 323 26 16 49 10 49 -14z m1346 10
c1 -1 -7 -157 -18 -347 -22 -383 -28 -412 -90 -450 -47 -29 -78 -36 -89 -19
-13 21 -11 29 10 29 22 0 67 34 82 61 8 15 46 585 49 728 0 9 8 11 27 6 16 -4
29 -7 29 -8z m-348 -833 l3 -42 -168 -7 c-200 -9 -554 0 -563 15 -3 5 -4 26
-2 45 l4 35 362 -2 361 -3 3 -41z"/>
</g>
</svg>
